<svg width="810" height="240" viewBox="0 0 810 240" fill="none" xmlns="http://www.w3.org/2000/svg">
<path d="M97.392 92.4C107.547 92.4 115.611 94.832 121.584 99.696C127.557 104.475 130.544 111.088 130.544 119.536C130.544 127.899 127.557 134.512 121.584 139.376C115.611 144.155 107.547 146.544 97.392 146.544H84.08V166H63.856V92.4H97.392ZM95.984 130.928C100.677 130.928 104.219 129.947 106.608 127.984C108.997 126.021 110.192 123.205 110.192 119.536C110.192 115.867 108.997 113.051 106.608 111.088C104.219 109.125 100.677 108.144 95.984 108.144H84.08V130.928H95.984ZM207.052 160.24C203.297 162.459 198.647 164.208 193.1 165.488C187.639 166.768 181.964 167.408 176.076 167.408C168.225 167.408 161.527 166.469 155.98 164.592C150.519 162.629 146.38 159.984 143.564 156.656C140.833 153.243 139.468 149.317 139.468 144.88C139.468 141.125 140.492 137.797 142.54 134.896C144.588 131.909 147.447 129.648 151.116 128.112C148.3 126.661 146.167 124.656 144.716 122.096C143.265 119.536 142.54 116.677 142.54 113.52C142.54 109.424 143.82 105.669 146.38 102.256C149.025 98.8427 152.951 96.112 158.156 94.064C163.447 92.016 169.932 90.992 177.612 90.992C182.647 90.992 187.511 91.4613 192.204 92.4C196.897 93.2533 201.036 94.4907 204.62 96.112L198.988 111.216C193.1 108.144 186.273 106.608 178.508 106.608C173.217 106.608 169.249 107.333 166.604 108.784C164.044 110.235 162.764 112.24 162.764 114.8C162.764 119.237 165.921 121.456 172.236 121.456H193.612V136.304H170.956C167.287 136.304 164.471 136.944 162.508 138.224C160.631 139.504 159.692 141.339 159.692 143.728C159.692 146.288 161.1 148.293 163.916 149.744C166.732 151.195 171.084 151.92 176.972 151.92C181.153 151.92 185.42 151.323 189.772 150.128C194.209 148.933 197.921 147.355 200.908 145.392L207.052 160.24ZM251.746 146.288H239.33V166H219.106V92.4H252.642C262.797 92.4 270.861 94.832 276.834 99.696C282.807 104.475 285.794 111.088 285.794 119.536C285.794 124.912 284.471 129.605 281.826 133.616C279.266 137.541 275.597 140.613 270.818 142.832L287.202 166H265.442L251.746 146.288ZM265.442 119.536C265.442 115.867 264.247 113.051 261.858 111.088C259.469 109.125 255.927 108.144 251.234 108.144H239.33V130.928H251.234C255.927 130.928 259.469 129.947 261.858 127.984C264.247 126.021 265.442 123.205 265.442 119.536ZM335.017 92.4C345.172 92.4 353.236 94.832 359.209 99.696C365.182 104.475 368.169 111.088 368.169 119.536C368.169 127.899 365.182 134.512 359.209 139.376C353.236 144.155 345.172 146.544 335.017 146.544H321.705V166H301.481V92.4H335.017ZM333.609 130.928C338.302 130.928 341.844 129.947 344.233 127.984C346.622 126.021 347.817 123.205 347.817 119.536C347.817 115.867 346.622 113.051 344.233 111.088C341.844 109.125 338.302 108.144 333.609 108.144H321.705V130.928H333.609ZM452.101 92.4V166H432.517V158.96C427.397 164.592 420.144 167.408 410.757 167.408C401.712 167.408 394.672 164.677 389.637 159.216C384.688 153.755 382.213 146.117 382.213 136.304V92.4H402.437V135.152C402.437 140.357 403.632 144.283 406.021 146.928C408.41 149.573 411.824 150.896 416.261 150.896C420.954 150.896 424.709 149.488 427.525 146.672C430.341 143.771 431.749 139.717 431.749 134.512V92.4H452.101ZM496.179 167.408C490.206 167.408 484.36 166.683 478.643 165.232C473.011 163.781 468.488 161.861 465.075 159.472L472.115 144.496C475.443 146.715 479.326 148.464 483.763 149.744C488.2 151.024 492.723 151.664 497.331 151.664C501.598 151.664 504.67 151.109 506.547 150C508.51 148.805 509.491 147.227 509.491 145.264C509.491 143.045 508.296 141.424 505.907 140.4C503.518 139.291 499.72 138.224 494.515 137.2C488.798 136.005 484.104 134.768 480.435 133.488C476.766 132.123 473.566 129.947 470.835 126.96C468.19 123.973 466.867 119.877 466.867 114.672C466.867 110.064 468.19 105.968 470.835 102.384C473.48 98.8 477.278 96.0267 482.227 94.064C487.262 92.016 493.15 90.992 499.891 90.992C504.84 90.992 509.662 91.5467 514.355 92.656C519.048 93.68 523.102 95.2587 526.515 97.392L519.987 112.368C513.843 108.613 506.888 106.736 499.123 106.736C494.942 106.736 491.827 107.376 489.779 108.656C487.816 109.851 486.835 111.472 486.835 113.52C486.835 115.739 488.03 117.36 490.419 118.384C492.808 119.408 496.606 120.432 501.811 121.456C507.443 122.651 512.094 123.931 515.763 125.296C519.518 126.576 522.718 128.709 525.363 131.696C528.094 134.597 529.459 138.565 529.459 143.6C529.459 148.293 528.136 152.432 525.491 156.016C522.931 159.6 519.134 162.416 514.099 164.464C509.064 166.427 503.091 167.408 496.179 167.408ZM571.159 107.888V150.512H583.447V166H538.647V150.512H550.935V107.888H538.647V92.4H583.447V107.888H571.159ZM599.481 92.4H634.169C642.532 92.4 649.87 93.8933 656.185 96.88C662.5 99.8667 667.364 104.133 670.777 109.68C674.276 115.227 676.025 121.755 676.025 129.264C676.025 136.688 674.276 143.173 670.777 148.72C667.364 154.267 662.5 158.533 656.185 161.52C649.87 164.507 642.532 166 634.169 166H599.481V92.4ZM633.529 150.128C640.356 150.128 645.732 148.336 649.657 144.752C653.582 141.083 655.545 135.92 655.545 129.264C655.545 122.608 653.582 117.445 649.657 113.776C645.732 110.107 640.356 108.272 633.529 108.272H619.705V150.128H633.529ZM732.674 166L716.674 142.96L700.674 166H677.506L705.282 128.752L678.786 92.4H701.57L716.93 114.16L732.29 92.4H754.434L727.938 128.112L755.842 166H732.674Z" fill="black"/>
</svg>
